<svg width="122" height="106" viewBox="0 0 122 106" fill="none" xmlns="http://www.w3.org/2000/svg">
<path fill-rule="evenodd" clip-rule="evenodd" d="M76.5753 0.303699C71.6542 1.20018 68.4184 2.9101 65.0332 6.40365C60.8482 10.7217 59.4761 13.6729 58.1185 21.2786C52.7176 51.5165 42.854 70.4112 27.0853 80.7224C18.7 86.2046 5.07259 88.0755 3.82362 83.916C3.07051 81.407 7.13835 79.2387 14.0115 78.4871C16.6011 78.2032 17.0511 77.4584 15.3004 76.3552C12.6479 74.6843 9.23383 75.0969 4.97835 77.6033C-2.60291 82.0688 -1.33272 89.0135 7.47627 91.2615C14.4462 93.0409 25.2615 90.1345 33.466 84.2778C49.2772 72.9896 58.9242 55.0482 62.0623 31.0941C63.7095 18.518 64.7369 15.0761 68.156 10.6869C71.5531 6.32654 75.6337 3.96842 79.8298 3.94215C81.9006 3.92944 82.6987 4.12432 86.044 5.45802C90.0785 7.06669 95.298 7.95615 96 7.5C96.2032 7.36797 94.2135 6.82524 94 6.5C93.4125 5.60522 88.4995 2.30086 86.5518 1.36032C83.8484 0.0545845 80.1125 -0.341121 76.5753 0.303699ZM120.514 9.09223C120.281 9.17697 119.421 9.6735 118.604 10.1955C115.236 12.346 114.574 12.5316 110.891 12.3646C102.15 11.9664 98.8461 12.3307 92.9002 14.3457C76.8402 19.7898 68.6052 30.3357 60.3022 56.0904C59.6637 58.0706 58.4207 61.9158 57.5394 64.634C56.6581 67.3523 55.4813 71.1017 54.9251 72.9659C50.9498 86.2758 47.8677 90.9683 39.9944 95.6956C29.5629 101.96 18.9598 103.485 9.05129 100.147C5.56505 98.9714 4.94353 99.0764 6.20948 100.627C11.5543 107.178 29.1782 107.871 40.469 101.976C50.0413 96.9776 54.9812 90.5802 59.1059 77.838C61.8645 69.319 62.5234 67.3955 64.3803 62.4454C71.897 42.4068 76.8453 33.6437 84.7866 26.3066C93.1702 18.5603 98.6653 16.2141 109.971 15.5531C115.015 15.2591 115.2 15.7057 111.923 20.2516C104.99 29.8688 99.7122 40.3393 98.0234 47.8289C93.7603 66.7253 93.6779 81.7595 97.7509 97.186C99.0839 102.233 99.4753 102.861 100.058 100.885C100.778 98.4392 100.867 95.1075 100.373 89.0652C99.6341 80.0267 99.6485 73.8505 100.431 64.4222C102.031 45.1462 106.466 33.1828 118.055 16.8809C121.051 12.668 122 10.9962 122 9.93194C122 9.16172 121.345 8.79143 120.514 9.09223Z" fill="#F9126C"/>
</svg>
